<svg width="1025" height="1024" viewBox="0 0 1025 1024" fill="none" xmlns="http://www.w3.org/2000/svg">
<rect width="1024" height="1024" transform="translate(0.0932617)" fill="#303A46"/>
<rect x="0.0932617" y="341.253" width="513.332" height="913.047" rx="35.5247" transform="rotate(-41.6655 0.0932617 341.253)" fill="#F6F7F9"/>
<circle cx="906.862" cy="676.746" r="34.6366" fill="#323A45"/>
<circle cx="907.306" cy="676.302" r="27.9757" fill="#F6F7F9"/>
<circle cx="863.344" cy="720.264" r="8.88118" fill="#323A45"/>
<path d="M536.331 699.355L544.555 634.394L227.42 594.245L237.186 517.104L643.191 568.504L625.2 710.606L536.331 699.355ZM496.799 302.006L561.309 310.173L533.838 527.159L383.617 508.141L411.087 291.155L475.146 299.265L470.063 339.414L491.717 342.155L496.799 302.006ZM302.967 326.968L324.621 329.709L329.076 294.522L393.134 302.632L367.377 506.085L217.155 487.067L242.912 283.614L307.422 291.781L302.967 326.968ZM674.659 319.94L645.189 552.715L556.32 541.464L585.789 308.689L674.659 319.94ZM456.071 449.937L477.724 452.679L483.378 408.018L461.725 405.277L456.071 449.937ZM311.714 431.661L316.283 395.572L294.629 392.831L290.06 428.92L311.714 431.661Z" fill="#303A46"/>
<circle cx="901.126" cy="544.278" r="17.7624" transform="rotate(4.60355 901.126 544.278)" fill="#F6F7F9"/>
<rect x="904.669" y="334.289" width="26.6435" height="177.624" rx="13.3218" transform="rotate(4.60355 904.669 334.289)" fill="#F6F7F9"/>
<circle cx="942.054" cy="560.561" r="17.7624" transform="rotate(11.6468 942.054 560.561)" fill="#F6F7F9"/>
<rect x="971.319" y="352.591" width="26.6435" height="177.624" rx="13.3218" transform="rotate(11.6468 971.319 352.591)" fill="#F6F7F9"/>
<rect x="418.889" y="841.636" width="17.7624" height="79.0425" rx="8.88118" transform="rotate(-41 418.889 841.636)" fill="#F6F7F9"/>
<rect x="418.889" y="841.636" width="17.7624" height="79.0425" rx="8.88118" transform="rotate(-41 418.889 841.636)" fill="#F6F7F9"/>
<rect x="418.889" y="841.636" width="17.7624" height="79.0425" rx="8.88118" transform="rotate(-41 418.889 841.636)" fill="#F6F7F9"/>
<rect x="418.889" y="841.636" width="17.7624" height="79.0425" rx="8.88118" transform="rotate(-41 418.889 841.636)" fill="#F6F7F9"/>
<rect x="418.889" y="841.636" width="17.7624" height="79.0425" rx="8.88118" transform="rotate(-41 418.889 841.636)" fill="#F6F7F9"/>
<rect x="366.462" y="781.982" width="17.7624" height="79.0425" rx="8.88118" transform="rotate(-41 366.462 781.982)" fill="#F6F7F9"/>
<rect x="366.462" y="781.982" width="17.7624" height="79.0425" rx="8.88118" transform="rotate(-41 366.462 781.982)" fill="#F6F7F9"/>
<rect x="366.462" y="781.982" width="17.7624" height="79.0425" rx="8.88118" transform="rotate(-41 366.462 781.982)" fill="#F6F7F9"/>
<rect x="366.462" y="781.982" width="17.7624" height="79.0425" rx="8.88118" transform="rotate(-41 366.462 781.982)" fill="#F6F7F9"/>
<rect x="366.462" y="781.982" width="17.7624" height="79.0425" rx="8.88118" transform="rotate(-41 366.462 781.982)" fill="#F6F7F9"/>
</svg>
