<svg width="1024" height="1024" viewBox="0 0 1024 1024" fill="none" xmlns="http://www.w3.org/2000/svg">
<rect x="0.5" y="0.5" width="1023" height="1023" fill="#282FA8"/>
<rect x="0.5" y="0.5" width="1023" height="1023" stroke="black"/>
<g filter="url(#filter0_i_1334_3445)">
<path fill-rule="evenodd" clip-rule="evenodd" d="M212.695 748.93C222.796 759.541 235.146 765.488 249.744 766.77L514.34 790.013C522.096 790.694 528.798 788.987 534.448 784.892C540.091 780.796 543.215 775.311 543.819 768.439C544.423 761.56 542.307 755.568 537.473 750.459C532.631 745.346 526.334 742.447 518.579 741.766L253.982 718.524L278.704 437.084L515.929 457.922L753.153 478.76L747.573 542.285C746.973 549.12 749.055 555.076 753.819 560.15C758.582 565.231 764.864 568.114 772.662 568.799C780.466 569.484 787.208 567.746 792.888 563.582C798.573 559.426 801.717 553.929 802.317 547.094L821.318 330.788C822.448 317.922 817.962 306.183 807.861 295.572C797.76 284.961 785.41 279.014 770.812 277.732L711.506 272.522L713.483 250.007C714.124 242.717 711.774 236.352 706.435 230.913C701.102 225.474 694.169 222.381 685.634 221.631C677.363 220.904 670.212 222.761 664.182 227.201C658.152 231.642 654.818 237.507 654.177 244.798L652.2 267.313L414.975 246.475L416.953 223.96C417.593 216.669 415.243 210.304 409.905 204.865C404.566 199.426 397.631 196.332 389.104 195.583C380.832 194.856 373.681 196.713 367.651 201.154C361.621 205.594 358.287 211.459 357.647 218.75L355.669 241.265L296.363 236.056C281.764 234.773 268.567 238.476 256.771 247.163C244.974 255.851 238.511 266.628 237.381 279.494L199.238 713.715C198.108 726.581 202.593 738.319 212.695 748.93ZM484.736 604.659C474.378 602.124 464.568 604.624 462.033 614.983C459.263 626.3 467.174 633.709 478.492 636.478L505.209 643.017C516.047 645.669 526.17 642.959 528.822 632.121C531.475 621.284 523.747 614.205 512.909 611.553L484.736 604.659ZM474.363 548.912C479.763 539.741 490.253 540.88 499.424 546.28L536.462 568.087C546.042 573.728 552.198 582.708 546.557 592.288C540.916 601.869 530.077 600.843 520.496 595.202L484.698 574.125C474.707 568.242 468.48 558.903 474.363 548.912ZM560.01 530.195C552.985 524.716 544.736 523.477 539.258 530.502C533.266 538.185 536.534 546.517 544.218 552.509L559.077 564.097C566.431 569.832 574.994 571.021 580.729 563.667C586.464 556.313 583.224 548.298 575.87 542.563L560.01 530.195ZM378.47 319.257C362.054 317.793 349.654 306.419 350.775 293.853C349.311 310.27 361.432 324.765 377.848 326.229C394.264 327.694 408.76 315.573 410.224 299.157C409.103 311.722 394.886 320.722 378.47 319.257ZM647.354 323.141C646.24 335.626 658.58 346.929 674.916 348.386C691.251 349.843 705.397 340.904 706.511 328.419C705.054 344.754 690.629 356.816 674.294 355.358C657.958 353.901 645.897 339.477 647.354 323.141Z" fill="white"/>
</g>
<g filter="url(#filter1_i_1334_3445)">
<path d="M743.765 652.01C751.059 663.734 766.475 667.325 778.199 660.031C789.922 652.738 793.513 637.321 786.22 625.598L743.765 652.01ZM707.565 594.021L701.502 618.275L707.565 594.021ZM582.493 666.804L607.177 670.761L582.493 666.804ZM597.993 761.304L577.857 776.121L597.993 761.304ZM657.655 798.519L661.538 773.823L657.655 798.519ZM724.916 790.099L714.729 767.268L724.916 790.099ZM761.493 729.304L737.454 736.172L761.493 729.304ZM678.078 673.93C664.425 675.986 655.023 688.72 657.079 702.374C659.135 716.027 671.869 725.429 685.522 723.373L678.078 673.93ZM764.993 638.804C786.22 625.598 786.216 625.592 786.212 625.585C786.211 625.583 786.206 625.576 786.204 625.572C786.198 625.562 786.192 625.552 786.185 625.542C786.172 625.521 786.158 625.498 786.142 625.473C786.11 625.422 786.072 625.362 786.029 625.294C785.942 625.158 785.833 624.987 785.7 624.783C785.436 624.376 785.081 623.838 784.637 623.185C783.749 621.879 782.501 620.104 780.909 617.992C777.742 613.789 773.124 608.128 767.193 602.125C755.678 590.47 737.441 575.721 713.629 569.768L701.502 618.275C712.702 621.075 723.179 628.717 731.625 637.266C735.673 641.363 738.848 645.257 740.978 648.083C742.034 649.485 742.81 650.594 743.285 651.293C743.523 651.642 743.683 651.886 743.764 652.011C743.805 652.074 743.825 652.106 743.826 652.106C743.826 652.107 743.821 652.099 743.811 652.083C743.806 652.075 743.8 652.065 743.792 652.053C743.788 652.047 743.784 652.04 743.78 652.033C743.777 652.029 743.774 652.024 743.773 652.022C743.769 652.016 743.765 652.01 764.993 638.804ZM713.629 569.768C680.629 561.518 644.996 559.193 608.8 582.887L636.185 624.721C655.813 611.872 675.038 611.659 701.502 618.275L713.629 569.768ZM608.8 582.887C591.882 593.962 564.665 620.067 557.808 662.847L607.177 670.761C611.167 645.875 627.166 630.625 636.185 624.721L608.8 582.887ZM557.808 662.847C554.078 686.116 552.598 706.193 555.549 724.806C558.618 744.162 566.19 760.267 577.857 776.121L618.129 746.487C610.295 735.841 606.532 727.062 604.933 716.977C603.216 706.148 603.737 692.225 607.177 670.761L557.808 662.847ZM577.857 776.121C599.054 804.927 628.825 819.293 653.771 823.216L661.538 773.823C648.207 771.727 630.715 763.592 618.129 746.487L577.857 776.121ZM653.771 823.216C686.062 828.294 710.536 823.891 735.103 812.929L714.729 767.268C698.596 774.467 683.873 777.335 661.538 773.823L653.771 823.216ZM735.103 812.929C771.538 796.672 795.933 758.845 785.531 722.436L737.454 736.172C739.052 741.764 735.646 757.935 714.729 767.268L735.103 812.929ZM785.531 722.436C775.31 686.665 741.105 676.701 720.688 673.879C709.437 672.324 698.921 672.352 691.387 672.721C687.568 672.907 684.388 673.189 682.103 673.432C680.957 673.553 680.029 673.666 679.35 673.754C679.01 673.799 678.731 673.837 678.518 673.867C678.412 673.882 678.321 673.894 678.248 673.905C678.211 673.911 678.179 673.915 678.15 673.919C678.136 673.922 678.123 673.924 678.111 673.925C678.105 673.926 678.097 673.927 678.094 673.928C678.086 673.929 678.078 673.93 681.8 698.652C685.522 723.373 685.515 723.374 685.508 723.375C685.506 723.375 685.5 723.376 685.496 723.377C685.488 723.378 685.481 723.379 685.475 723.38C685.463 723.382 685.455 723.383 685.451 723.384C685.443 723.385 685.451 723.384 685.473 723.38C685.519 723.374 685.623 723.36 685.784 723.339C686.107 723.297 686.651 723.23 687.388 723.151C688.868 722.994 691.092 722.795 693.831 722.661C699.414 722.388 706.631 722.411 713.843 723.408C730.35 725.69 735.991 731.051 737.454 736.172L785.531 722.436Z" fill="white"/>
</g>
<defs>
<filter id="filter0_i_1334_3445" x="199.067" y="195.43" width="622.421" height="598.729" filterUnits="userSpaceOnUse" color-interpolation-filters="sRGB">
<feFlood flood-opacity="0" result="BackgroundImageFix"/>
<feBlend mode="normal" in="SourceGraphic" in2="BackgroundImageFix" result="shape"/>
<feColorMatrix in="SourceAlpha" type="matrix" values="0 0 0 0 0 0 0 0 0 0 0 0 0 0 0 0 0 0 127 0" result="hardAlpha"/>
<feOffset dy="7"/>
<feGaussianBlur stdDeviation="2"/>
<feComposite in2="hardAlpha" operator="arithmetic" k2="-1" k3="1"/>
<feColorMatrix type="matrix" values="0 0 0 0 0 0 0 0 0 0 0 0 0 0 0 0 0 0 0.25 0"/>
<feBlend mode="normal" in2="shape" result="effect1_innerShadow_1334_3445"/>
</filter>
<filter id="filter1_i_1334_3445" x="553.983" y="563.993" width="236.013" height="265.322" filterUnits="userSpaceOnUse" color-interpolation-filters="sRGB">
<feFlood flood-opacity="0" result="BackgroundImageFix"/>
<feBlend mode="normal" in="SourceGraphic" in2="BackgroundImageFix" result="shape"/>
<feColorMatrix in="SourceAlpha" type="matrix" values="0 0 0 0 0 0 0 0 0 0 0 0 0 0 0 0 0 0 127 0" result="hardAlpha"/>
<feOffset dy="7"/>
<feGaussianBlur stdDeviation="2"/>
<feComposite in2="hardAlpha" operator="arithmetic" k2="-1" k3="1"/>
<feColorMatrix type="matrix" values="0 0 0 0 0 0 0 0 0 0 0 0 0 0 0 0 0 0 0.25 0"/>
<feBlend mode="normal" in2="shape" result="effect1_innerShadow_1334_3445"/>
</filter>
</defs>
</svg>
