<svg width="300" height="300" viewBox="0 0 300 300" fill="none" xmlns="http://www.w3.org/2000/svg">
<rect width="300" height="300" fill="#1C1C1E"/>
<path d="M32.6926 164.284H53.9346V167.552H57.2026V178.732H53.9346V182H19.1046V178.732H15.8366V120.768H19.1046V117.5H29.4246V120.768H32.6926V164.284ZM73.7382 149.578H88.1862V145.794H85.1762V143.3H76.7482V145.794H73.7382V149.578ZM100.226 140.462H103.064V159.64H100.226V162.478H73.7382V165.144H77.1782V168.068H99.6242V170.992H102.72V179.248H99.6242V182H68.1482V179.248H64.8802V175.894H61.6982V172.454H58.8602V140.462H61.6982V136.764H64.7942V133.238H67.8902V130.486H94.0342V133.238H97.1302V136.764H100.226V140.462ZM131.643 143.902H123.645V146.482H121.065V155.512H123.645V158.092H131.643V143.902ZM147.639 183.806H144.801V187.246H141.619V190.6H138.351V193.352H110.143V190.6H107.047V181.914H110.143V178.99H128.461V176.066H131.901V171.336H114.615V168.498H111.347V165.402H108.165V161.704H105.327V140.29H108.165V136.678H111.347V133.496H114.615V130.486H144.801V133.324H147.639V183.806ZM178.926 169.186V161.618H167.746V164.026H165.166V166.778H167.746V169.186H178.926ZM191.998 137.452H194.75V178.904H191.998V182H158.544V178.044H155.362V174.518H152.352V171.422H149.6V158.866H152.352V155.77H155.362V152.244H158.544V148.976H178.926V144.848H155.104V141.752H152.18V133.496H155.104V130.486H189.074V133.496H191.998V137.452ZM236.811 133.324H239.907V143.3H236.811V145.88H217.805V148.804H214.365V163.854H217.805V166.778H236.811V169.702H239.907V179.248H236.811V182H206.625V178.818H203.357V175.206H200.175V171.078H197.337V141.58H200.175V137.538H203.357V133.926H206.625V130.486H236.811V133.324ZM251.328 171.336V168.498H248.06V165.402H244.878V161.704H242.04V133.152H244.964V130.486H254.596V133.152H257.434V153.878H260.186V157.404H266.55V153.878H269.302V133.324H272.14V130.486H281.6V133.324H284.438V183.806H281.6V187.246H278.418V190.6H275.15V193.352H246.856V190.6H243.76V181.914H246.856V178.99H265.174V176.066H268.614V171.336H251.328Z" fill="white"/>
</svg>
