<svg width="1024" height="1024" viewBox="0 0 1024 1024" fill="none" xmlns="http://www.w3.org/2000/svg">
<rect width="1024" height="1024" fill="url(#paint0_linear_3030_2)"/>
<path d="M866 504C866 432.403 844.769 362.414 804.992 302.884C765.215 243.353 708.678 196.955 642.531 169.556C576.385 142.157 503.598 134.988 433.377 148.956C363.156 162.924 298.654 197.401 248.027 248.027C197.401 298.654 162.924 363.156 148.956 433.377C134.988 503.598 142.157 576.385 169.556 642.531C196.955 708.678 243.353 765.215 302.884 804.992C362.414 844.769 432.403 866 504 866V797.153C446.02 797.153 389.342 779.96 341.133 747.747C292.924 715.535 255.35 669.751 233.162 616.185C210.974 562.618 205.169 503.675 216.48 446.809C227.792 389.943 255.712 337.708 296.71 296.71C337.708 255.712 389.943 227.792 446.809 216.48C503.675 205.169 562.618 210.974 616.185 233.162C669.751 255.35 715.535 292.924 747.747 341.133C779.96 389.342 797.153 446.02 797.153 504H866Z" fill="white"/>
<circle cx="395" cy="693" r="37" fill="white"/>
<circle cx="327" cy="637" r="19" fill="white"/>
<path d="M344.918 428.902C345.296 428.469 345.961 428.444 346.371 428.847L744.23 819.595C744.626 819.985 744.629 820.623 744.236 821.016L726.939 838.312C726.547 838.705 725.91 838.703 725.52 838.307L334.684 442.004C334.316 441.632 334.298 441.038 334.643 440.644L344.918 428.902Z" fill="white"/>
<path d="M322 455.641C322.378 455.208 323.043 455.183 323.453 455.586L721.312 846.334C721.708 846.724 721.711 847.362 721.318 847.755L704.021 865.052C703.629 865.444 702.992 865.442 702.602 865.047L311.766 468.744C311.398 468.371 311.38 467.777 311.725 467.383L322 455.641Z" fill="white"/>
<path d="M544.941 432.199C548.747 428.393 554.882 428.282 558.823 431.948L857.665 709.944C861.813 713.802 861.931 720.331 857.925 724.337L814.925 767.337C810.886 771.376 804.289 771.217 800.45 766.987L525.99 464.609C522.404 460.658 522.551 454.589 526.323 450.817L544.941 432.199Z" fill="white"/>
<ellipse cx="510.248" cy="414.813" rx="93.2194" ry="68.5954" transform="rotate(45 510.248 414.813)" fill="white"/>
<defs>
<linearGradient id="paint0_linear_3030_2" x1="168.836" y1="182.563" x2="875.753" y2="877.126" gradientUnits="userSpaceOnUse">
<stop stop-color="#FF3939"/>
<stop offset="0.489583" stop-color="#FF6148"/>
<stop offset="1" stop-color="#FF8956"/>
</linearGradient>
</defs>
</svg>
