<svg width="300" height="300" viewBox="0 0 300 300" fill="none" xmlns="http://www.w3.org/2000/svg">
<rect width="300" height="300" fill="#84BBFF"/>
<g clip-path="url(#clip0_1028_29)">
<path d="M238.168 151.667C245.072 151.667 250.668 146.071 250.668 139.167C250.668 132.263 245.072 126.667 238.168 126.667C231.264 126.667 225.668 132.263 225.668 139.167C225.668 146.071 231.264 151.667 238.168 151.667Z" fill="white"/>
<path d="M228.085 131.779C226.711 133.654 225.888 135.874 225.706 138.191C225.525 140.508 225.993 142.829 227.058 144.895C228.123 146.96 229.743 148.688 231.735 149.884C233.728 151.08 236.015 151.697 238.338 151.666L238.168 139.167L228.085 131.779Z" fill="#A7B1FF"/>
<path fill-rule="evenodd" clip-rule="evenodd" d="M250.117 142.842L238.17 139.167L238.012 151.666C238.822 151.676 239.633 151.608 240.435 151.46C242.457 151.088 244.355 150.222 245.962 148.941C247.57 147.659 248.835 146.001 249.65 144.113C249.828 143.697 249.985 143.273 250.117 142.842Z" fill="#FFA7A7"/>
<path d="M51.2814 145.28C50.8414 143.88 50.5214 142.84 50.5214 140.88C50.4814 140.08 50.4414 139.2 50.4414 138.64C50.4414 138.12 51.4014 136.96 51.9214 137.48C52.4814 138.04 52.9614 138.72 53.4414 139.4C54.3614 140.56 54.6814 141.52 55.2814 142.8C55.4814 143.12 56.2814 144.84 56.4414 145.44C56.6414 146.36 56.8814 147.28 57.4014 148.04C57.6814 148.72 58.3214 151 58.3214 151.6C58.3214 152.64 59.0414 153.72 59.0414 154.36C59.0414 155.04 59.6014 157.32 59.9614 158.28C60.2414 159.04 60.6414 159.56 60.9614 159.56C61.3214 159.56 61.7614 157.28 62.3214 155.84C62.9614 154.32 63.4414 152.76 64.0814 151.24C64.7614 149.52 64.9614 147.16 65.7614 145.52C66.5614 143.96 66.8014 142.84 67.6014 141.24L68.2014 140.04C68.4414 139.6 68.8814 138.48 69.3214 137.52C69.6414 136.96 70.4014 136.68 70.7614 137.16C71.3214 137.96 71.6414 138.48 71.7214 138.84C71.8014 139.24 71.8814 139.72 72.2814 140.68V144.64C72.2814 144.76 71.4414 147.36 71.2014 147.84C70.4814 149.6 69.8014 151.92 68.8014 153.8C68.3614 154.56 68.1214 155.08 68.0414 155.36C67.4414 157.2 66.8414 159.16 66.0814 161.04C65.9614 161.36 64.8814 164.44 64.4814 164.44C64.0814 164.44 63.4814 164.48 63.2814 164.68C62.8014 165.12 61.9214 164.36 61.4414 164.68L60.4414 165.24C59.7614 165.64 58.6414 165.44 58.0414 164.84C57.7214 164.64 57.3614 163.76 57.2014 163.4C56.9614 163 56.8014 162.4 56.5614 161.92C55.4814 159.92 54.9214 158.52 54.5214 157.4C54.3614 157.16 53.8014 155.08 53.6814 154.24C53.3214 152.4 52.1614 149.88 52.0414 148.32C51.9214 147.44 51.6014 146.24 51.2814 145.28ZM76.1442 164.4C75.3842 164.4 72.7042 161.52 72.4642 160.56C72.4642 160.56 72.3842 159.48 72.3042 159.08C72.3042 157.64 72.9842 156.36 73.5842 155H73.5442C73.7042 154.8 74.1042 153.92 74.1842 153.72C74.4242 153.08 76.7842 150.52 77.5042 150.04C77.6242 150.04 78.7042 149.2 78.7042 149.2C79.9442 148.52 80.8642 147.44 82.2642 146.96C82.2642 146.56 82.3442 146.16 82.3442 145.76C82.5442 145.56 82.9042 145.36 83.1842 145.16C83.4642 145 83.7842 145.08 84.0642 145.2C84.3842 145.4 84.7042 145.64 84.9042 145.84C85.3842 146.32 86.1842 148.2 86.7842 150.16L87.2242 151.92C87.2642 152.12 87.4242 153.12 87.4242 153.24C87.4242 153.84 88.2642 157.2 88.2642 157.48C88.2642 157.6 88.3042 157.68 88.3442 157.76L88.8242 159.4C88.8642 159.64 88.9042 159.8 88.9042 159.8C88.9042 160.04 89.1042 160.68 89.1842 160.84C89.2242 160.88 89.5442 161.48 89.5442 161.52C89.9042 162.6 89.9442 162.96 89.9842 163.32C90.0242 163.48 90.0242 163.52 90.0242 164.2C90.0242 164.88 88.8242 165 88.3842 164.92C87.8242 164.8 86.7042 164.4 85.9442 163.44C85.3842 162.72 85.2242 162.52 85.2242 162.44L84.3842 160.4C83.9042 161.16 82.9042 162.36 82.0642 163.36C81.3442 164.24 80.3042 164.52 79.9442 164.68C79.7042 164.76 78.8642 164.96 78.7842 164.96H78.0242C77.5842 164.96 76.7042 164.92 76.1442 164.4ZM78.0642 159.68C78.2242 159.84 78.1842 160.08 78.4242 160.32L78.7842 160.6C79.6242 160.72 80.1042 160.84 80.9042 160.28L83.6642 158.48V157.68C83.6642 157.28 83.5042 156.44 83.3442 156.04C83.3442 155.6 83.1442 154.96 83.1042 154.36L82.9042 152.68C82.9042 152.56 82.8642 152.28 82.8642 152.24H82.4242C81.9842 152.24 80.5042 153.72 80.1042 154.16C79.3442 155.08 79.1042 155.44 78.9842 155.72C78.6642 156.24 78.4642 156.92 78.2642 157.6C78.1842 157.72 78.1842 158 78.1842 158.24C78.1442 158.32 78.0642 158.52 78.0642 158.6V159.68ZM92.7314 156.44C92.7314 156.44 92.8514 155.52 92.9314 154.96C93.0114 154.64 93.0914 154.12 93.0914 153.96C93.0914 153.8 93.3714 153.08 93.4114 152.68H93.3714L93.9314 151L94.4514 150L94.7714 149.36L95.1714 148.8V148.84C95.2514 148.76 95.5714 148.36 95.6514 148.16L95.9714 147.88C95.9714 147.88 96.3314 147.56 96.5314 147.48L96.8914 147.4C96.8914 147.4 96.9714 147.36 97.0514 147.28C97.0914 147.24 97.2114 147.16 97.2914 147.16C97.3314 147.08 97.9714 146.84 98.0514 146.84L98.3314 146.76C98.3314 146.76 98.5714 146.76 98.7314 146.72C99.1314 146.68 99.7314 146.6 99.6514 146.6C99.5714 146.6 100.171 146.52 100.491 146.48L101.011 146.4H101.651C101.731 146.4 102.211 146.36 102.731 146.28C103.171 146.2 103.691 146.12 103.771 146.12H103.971C104.011 146.16 104.371 146.2 104.571 146.24C104.651 146.28 104.771 146.28 104.851 146.28C105.171 146.36 106.131 146.56 106.451 146.6C106.571 146.72 106.811 146.76 107.011 146.8C107.091 146.84 107.211 146.84 107.291 146.84C107.291 147 107.531 147.16 107.611 147.24C107.651 147.28 107.731 147.28 107.731 147.32L107.851 147.44V149C107.851 149 107.731 149.2 107.611 149.36C107.611 149.32 107.331 149.6 107.331 149.6L107.171 149.8C107.091 149.84 106.971 149.88 106.971 149.88C106.891 149.92 106.851 149.92 106.851 149.92C106.731 149.96 105.971 150.04 105.771 150.04H102.651C102.491 150.04 101.771 150.08 101.491 150.16C101.411 150.16 101.291 150.16 101.251 150.2H101.291C101.171 150.24 101.051 150.32 100.931 150.32L100.131 150.64C100.131 150.64 99.9714 150.72 99.8514 150.84C99.8114 150.88 99.8914 150.84 99.8114 150.92C99.6114 151.24 99.4114 151.48 99.3714 151.6V151.52L98.8514 152.36C98.7314 152.6 98.2114 154.08 98.1714 154.36V154.72C98.1714 154.96 98.1314 155.24 98.1314 155.44C98.1314 155.52 98.1314 155.76 98.0914 156C98.0514 156.36 98.0114 156.76 98.0114 156.92C98.0114 157.32 98.0514 157.72 98.0914 158C98.0914 158.12 98.1314 158.16 98.1314 158.2C98.1314 158.2 98.1314 158.44 98.1714 158.56C98.3714 159.04 98.8914 159.32 99.4914 159.48C99.6914 159.6 100.131 159.6 100.131 159.6H102.491C102.571 159.6 102.811 159.6 102.971 159.56C103.051 159.56 103.131 159.48 103.131 159.48H103.851C103.851 159.48 103.891 159.44 103.851 159.44C104.011 159.32 104.251 159.2 104.291 159.2H105.091C105.091 159.2 105.331 159.16 105.571 159.08C105.611 159.04 105.691 159 106.771 158.64L106.971 158.48H107.531C107.571 158.48 107.691 158.52 107.691 158.64C107.731 158.64 107.771 158.64 107.851 158.72V159.8C107.851 159.96 107.691 160.56 107.571 161.32L107.451 162L107.131 162.36C107.131 162.44 107.011 162.56 106.931 162.64L105.651 163.52C105.571 163.52 105.011 163.68 104.811 163.8C104.731 163.8 104.571 164.08 104.571 164.08C104.451 164.08 103.971 164.28 103.091 164.52C102.851 164.6 102.531 164.64 102.491 164.64C102.331 164.64 102.291 164.68 102.251 164.72L101.331 164.84C101.051 164.88 100.651 164.92 100.571 164.92H99.4514C99.0114 164.92 98.1714 164.84 97.6114 164.8C97.3714 164.76 97.0914 164.76 97.0514 164.76C97.0114 164.76 96.4114 164.6 96.1714 164.48V164.52C96.1314 164.48 95.9714 164.4 95.9314 164.4C95.5714 164.2 95.2514 163.92 94.8914 163.64C94.9314 163.68 94.8914 163.68 94.8514 163.6C94.8114 163.6 94.8114 163.6 94.8114 163.56C94.5714 163.2 93.7314 161.96 93.5714 161.52C93.5714 161.56 93.4914 161.28 93.4514 161.08L93.0914 159.92C93.0914 159.76 92.8114 158.2 92.8114 158L92.7314 157.48V156.44ZM112.888 157.4C112.888 156.36 113.088 155.28 113.088 154.2C113.208 152.6 113.488 150.92 113.488 148.8C113.568 147.6 113.728 146.4 113.728 145.12V140.8C113.728 140.28 113.488 139.92 113.048 139.4C112.448 138.64 111.888 138.48 111.768 138.32C111.408 137.96 111.568 136.92 112.168 136.92C113.528 136.92 115.208 137.08 116.648 137.4C119.048 138 119.768 138.24 120.408 138.44C122.568 139.2 124.208 140.04 125.568 140.8C128.288 142.32 129.448 143.68 129.888 144.32C130.768 145.64 130.888 146.24 130.888 146.72C130.888 147.36 130.928 148.64 129.208 150.92C127.928 152.64 126.248 153.92 125.048 154.44C124.528 154.72 122.928 155.24 122.248 155.4C120.808 155.64 120.248 155.64 119.608 156.28C119.448 156.44 119.288 157.28 119.208 158.32C119.128 160.04 119.168 162.4 119.168 163.32C119.168 164.24 118.848 164.32 118.248 165C117.808 165.52 117.288 165.44 116.368 165.64C116.328 165.64 115.968 165.16 115.408 165.48L114.728 165.64L114.048 165.2C113.848 165 113.928 164.48 113.688 164.36L113.008 164C112.808 163.88 112.888 163.16 112.888 163V157.4ZM119.088 149.16C119.128 149.72 119.168 150.32 119.528 150.8C120.448 150.8 121.048 150.2 121.728 149.8C122.008 149.68 122.768 149.16 123.848 148.24C124.448 147.64 125.048 147.08 125.528 146.24V145.6C125.528 145.44 125.248 145.2 123.968 144.12C123.288 143.6 122.528 143.28 121.848 142.84C120.328 141.84 119.408 141.6 117.808 141.32C117.808 142.44 118.168 143.6 118.528 144.92C118.688 145.88 118.848 146.8 119.088 149.16ZM134.583 164.68C134.543 164.72 134.263 164.68 134.143 164.64L133.863 164.32C133.783 164.2 133.623 163.84 133.623 163.8C133.623 163.76 133.583 163.56 133.583 163.4C133.503 163.12 133.463 162.68 133.463 162.52V162.28C133.463 162.04 133.823 159.84 133.983 158.2C134.103 158 134.103 157.8 134.143 157.2C134.183 157.16 134.223 157.04 134.223 156.96C134.303 156.68 134.343 155.72 134.343 155.56V152.36C134.343 152.2 134.303 151.32 134.263 150.48C134.223 149.64 134.223 148.8 134.223 148.56V148.24L134.543 145.28C134.583 144.84 134.623 144.52 134.623 144.36V144.12C134.663 143.96 134.743 143.72 134.743 143.64V142.88C134.743 142.84 134.783 142.56 134.863 142.28C134.903 142 134.983 141.52 134.983 141.6C134.983 141.56 135.023 141.16 135.103 140.72C135.143 140.32 135.263 139.6 135.263 139.68C135.303 139.52 135.383 139.24 135.383 139.16C135.383 139.16 135.383 139.12 135.423 139C135.463 138.88 135.503 138.68 135.503 138.6C135.583 138.32 135.743 137.6 135.743 137.6C135.743 137.6 135.783 137.52 135.743 137.56C135.863 137.4 136.143 137.08 136.143 137.12L136.783 136.44C136.823 136.44 136.863 136.48 136.983 136.52L137.423 136.8L137.583 137.04L137.943 137.64C137.943 137.76 137.983 137.92 138.023 138L138.063 138.04C138.063 138.12 138.103 138.36 138.183 138.56C138.183 138.64 138.223 138.92 138.303 139.2C138.343 139.52 138.423 139.84 138.423 139.8C138.423 139.84 138.503 140.12 138.543 140.32C138.623 140.48 138.703 140.76 138.703 140.72V140.76C138.783 141 138.943 141.92 138.943 142.12L139.463 146.64V148.32C139.463 148.48 139.543 148.92 139.583 149.04V152.48C139.583 152.6 139.583 153.2 139.623 153.8C139.663 154.36 139.703 154.92 139.703 155.04V155.68C139.703 155.88 139.663 156.6 139.623 157.08C139.583 157.4 139.583 157.72 139.583 157.8C139.583 157.96 139.383 159.36 139.303 159.8C139.303 159.84 139.263 160.04 139.223 160.24C139.183 160.4 139.183 160.6 139.183 160.6V160.84C139.143 161.36 138.703 163.52 138.543 164C138.543 164.08 138.503 164.16 138.463 164.28V164.24C138.423 164.28 138.423 164.4 138.423 164.48C138.383 164.68 138.303 164.96 138.183 165.08V165.12H137.943L137.663 165C137.623 165 137.423 165.12 137.303 165.24H136.263C136.263 165.24 136.183 165.28 136.103 165.36L135.943 165.52H135.783L134.823 164.68H134.583ZM146.847 164.4C146.087 164.4 143.407 161.52 143.167 160.56C143.167 160.56 143.087 159.48 143.007 159.08C143.007 157.64 143.687 156.36 144.287 155H144.247C144.407 154.8 144.807 153.92 144.887 153.72C145.127 153.08 147.487 150.52 148.207 150.04C148.327 150.04 149.407 149.2 149.407 149.2C150.647 148.52 151.567 147.44 152.967 146.96C152.967 146.56 153.047 146.16 153.047 145.76C153.247 145.56 153.607 145.36 153.887 145.16C154.167 145 154.487 145.08 154.767 145.2C155.087 145.4 155.407 145.64 155.607 145.84C156.087 146.32 156.887 148.2 157.487 150.16L157.927 151.92C157.967 152.12 158.127 153.12 158.127 153.24C158.127 153.84 158.967 157.2 158.967 157.48C158.967 157.6 159.007 157.68 159.047 157.76L159.527 159.4C159.567 159.64 159.607 159.8 159.607 159.8C159.607 160.04 159.807 160.68 159.887 160.84C159.927 160.88 160.247 161.48 160.247 161.52C160.607 162.6 160.647 162.96 160.687 163.32C160.727 163.48 160.727 163.52 160.727 164.2C160.727 164.88 159.527 165 159.087 164.92C158.527 164.8 157.407 164.4 156.647 163.44C156.087 162.72 155.927 162.52 155.927 162.44L155.087 160.4C154.607 161.16 153.607 162.36 152.767 163.36C152.047 164.24 151.007 164.52 150.647 164.68C150.407 164.76 149.567 164.96 149.487 164.96H148.727C148.287 164.96 147.407 164.92 146.847 164.4ZM148.767 159.68C148.927 159.84 148.887 160.08 149.127 160.32L149.487 160.6C150.327 160.72 150.807 160.84 151.607 160.28L154.367 158.48V157.68C154.367 157.28 154.207 156.44 154.047 156.04C154.047 155.6 153.847 154.96 153.807 154.36L153.607 152.68C153.607 152.56 153.567 152.28 153.567 152.24H153.127C152.687 152.24 151.207 153.72 150.807 154.16C150.047 155.08 149.807 155.44 149.687 155.72C149.367 156.24 149.167 156.92 148.967 157.6C148.887 157.72 148.887 158 148.887 158.24C148.847 158.32 148.767 158.52 148.767 158.6V159.68ZM178.595 165.52C178.035 165.2 177.755 164.88 177.075 164.88H176.915C176.915 164.72 176.395 164.24 175.995 164.04C175.595 163.84 175.635 163.68 175.515 163.2C175.435 162.72 175.275 161.36 175.275 161.08V159.12C175.275 159 175.235 158.6 175.235 158.24V157.48C175.235 157.28 175.195 156.08 175.155 155.04C175.115 153.88 175.075 152.64 175.075 152.4C175.075 151.8 175.035 151.16 174.875 150.56L174.635 149.84C174.555 149.72 174.435 149.28 174.435 149.24L174.235 149H173.955C173.835 149 173.475 149.12 173.355 149.2C172.915 149.4 172.835 149.48 172.795 149.48C172.435 149.76 171.675 150.2 171.515 150.32C171.315 150.36 171.155 150.52 171.035 150.64L170.995 150.72C170.875 150.92 170.355 151.48 170.275 151.56C170.155 151.68 169.875 152.48 169.835 152.6C169.835 152.64 169.835 152.76 169.755 152.92C169.715 153.08 169.675 153.24 169.675 153.36V154.04C169.675 154.08 169.595 154.36 169.515 154.64C169.435 154.92 169.395 155.2 169.395 155.24C169.395 155.48 169.355 156.36 169.315 157.2C169.275 158.08 169.275 158.92 169.275 159.12C169.275 159.16 169.275 159.28 169.235 159.48C169.195 160.12 168.875 160.8 168.875 161.48C168.875 161.8 168.835 162.4 168.715 162.72C168.355 163.68 168.635 163.96 167.715 164.44C167.675 164.44 167.395 164.6 167.395 164.6L167.195 164.76C166.755 164.76 166.715 164.76 166.595 164.72C166.315 164.72 166.235 164.36 165.995 164.24C165.915 164.2 165.835 164.16 165.715 164.16H165.235L164.955 164.28H164.875C164.555 164.28 164.515 163.76 164.515 163.52C164.515 163.52 164.275 163.16 164.315 163.2C164.235 163.08 164.235 162.92 164.195 162.76C164.115 162.48 164.075 162.08 163.995 161.68C163.875 161.36 163.795 159.96 163.795 159.68V158.72L163.875 158.28C163.995 157.88 163.995 157.44 164.035 157.04C164.075 156.6 164.115 156.12 164.115 155.96V154.28C164.115 154.24 164.115 154.12 164.155 154C164.195 153.88 164.235 153.72 164.235 153.6V150.88C164.235 150.88 164.235 150.72 164.195 150.6C164.155 150.44 164.115 150.2 164.115 150.16V149.52C164.115 149.4 164.075 149.28 163.995 149.2C163.995 149 163.955 148.64 163.875 148.2C163.835 147.72 163.795 147.16 163.795 146.96L163.395 146.12V146.2C163.395 146.24 163.315 146.04 163.275 145.92C163.195 145.8 163.155 145.68 163.155 145.64C163.155 145.6 163.235 145.48 163.275 145.44L163.435 145.16L163.715 144.76C163.715 144.72 163.795 144.6 163.795 144.52H164.555L164.795 144.6L165.115 144.72L165.635 144.96C165.675 145 165.715 145.12 165.795 145.2L166.275 145.76L166.675 146.16C166.915 146.44 167.195 146.68 167.315 146.8V146.72L167.395 147C167.595 147.32 168.035 148.16 168.515 148.28C169.035 148.2 169.475 147.88 169.835 147.36V147.4C170.195 147.08 171.315 146.36 172.075 145.88L172.635 145.52C173.035 145.4 173.475 144.96 173.835 144.84C174.675 144.72 174.875 144.72 175.235 144.6H175.995C175.995 144.6 176.315 144.68 176.635 144.8C176.675 144.84 176.795 144.84 176.835 144.84C177.035 144.92 177.475 145.08 177.475 145.16C177.635 145.36 178.235 145.72 178.235 146.04L178.595 146.68V146.64C178.995 147.08 179.115 147.92 179.475 148.52C179.475 148.88 179.515 149.24 179.635 149.6V149.56L179.715 149.8C179.715 149.68 179.835 150.64 179.955 151.28C180.035 152 180.275 152.6 180.355 153.2L180.475 154.44C180.555 155.2 180.675 156.64 180.675 157.04V161.84C180.675 162.44 180.475 162.96 180.435 163.52V164.2C180.355 165 180.315 165.08 180.315 165.08C180.315 165.32 179.915 165.76 179.915 165.76C179.635 165.76 179.395 165.6 178.595 165.52ZM200.04 165.52C199.48 165.2 199.2 164.88 198.52 164.88H198.36C198.36 164.72 197.84 164.24 197.44 164.04C197.04 163.84 197.08 163.68 196.96 163.2C196.88 162.72 196.72 161.36 196.72 161.08V159.12C196.72 159 196.68 158.6 196.68 158.24V157.48C196.68 157.28 196.64 156.08 196.6 155.04C196.56 153.88 196.52 152.64 196.52 152.4C196.52 151.8 196.48 151.16 196.32 150.56L196.08 149.84C196 149.72 195.88 149.28 195.88 149.24L195.68 149H195.4C195.28 149 194.92 149.12 194.8 149.2C194.36 149.4 194.28 149.48 194.24 149.48C193.88 149.76 193.12 150.2 192.96 150.32C192.76 150.36 192.6 150.52 192.48 150.64L192.44 150.72C192.32 150.92 191.8 151.48 191.72 151.56C191.6 151.68 191.32 152.48 191.28 152.6C191.28 152.64 191.28 152.76 191.2 152.92C191.16 153.08 191.12 153.24 191.12 153.36V154.04C191.12 154.08 191.04 154.36 190.96 154.64C190.88 154.92 190.84 155.2 190.84 155.24C190.84 155.48 190.8 156.36 190.76 157.2C190.72 158.08 190.72 158.92 190.72 159.12C190.72 159.16 190.72 159.28 190.68 159.48C190.64 160.12 190.32 160.8 190.32 161.48C190.32 161.8 190.28 162.4 190.16 162.72C189.8 163.68 190.08 163.96 189.16 164.44C189.12 164.44 188.84 164.6 188.84 164.6L188.64 164.76C188.2 164.76 188.16 164.76 188.04 164.72C187.76 164.72 187.68 164.36 187.44 164.24C187.36 164.2 187.28 164.16 187.16 164.16H186.68L186.4 164.28H186.32C186 164.28 185.96 163.76 185.96 163.52C185.96 163.52 185.72 163.16 185.76 163.2C185.68 163.08 185.68 162.92 185.64 162.76C185.56 162.48 185.52 162.08 185.44 161.68C185.32 161.36 185.24 159.96 185.24 159.68V158.72L185.32 158.28C185.44 157.88 185.44 157.44 185.48 157.04C185.52 156.6 185.56 156.12 185.56 155.96V154.28C185.56 154.24 185.56 154.12 185.6 154C185.64 153.88 185.68 153.72 185.68 153.6V150.88C185.68 150.88 185.68 150.72 185.64 150.6C185.6 150.44 185.56 150.2 185.56 150.16V149.52C185.56 149.4 185.52 149.28 185.44 149.2C185.44 149 185.4 148.64 185.32 148.2C185.28 147.72 185.24 147.16 185.24 146.96L184.84 146.12V146.2C184.84 146.24 184.76 146.04 184.72 145.92C184.64 145.8 184.6 145.68 184.6 145.64C184.6 145.6 184.68 145.48 184.72 145.44L184.88 145.16L185.16 144.76C185.16 144.72 185.24 144.6 185.24 144.52H186L186.24 144.6L186.56 144.72L187.08 144.96C187.12 145 187.16 145.12 187.24 145.2L187.72 145.76L188.12 146.16C188.36 146.44 188.64 146.68 188.76 146.8V146.72L188.84 147C189.04 147.32 189.48 148.16 189.96 148.28C190.48 148.2 190.92 147.88 191.28 147.36V147.4C191.64 147.08 192.76 146.36 193.52 145.88L194.08 145.52C194.48 145.4 194.92 144.96 195.28 144.84C196.12 144.72 196.32 144.72 196.68 144.6H197.44C197.44 144.6 197.76 144.68 198.08 144.8C198.12 144.84 198.24 144.84 198.28 144.84C198.48 144.92 198.92 145.08 198.92 145.16C199.08 145.36 199.68 145.72 199.68 146.04L200.04 146.68V146.64C200.44 147.08 200.56 147.92 200.92 148.52C200.92 148.88 200.96 149.24 201.08 149.6V149.56L201.16 149.8C201.16 149.68 201.28 150.64 201.4 151.28C201.48 152 201.72 152.6 201.8 153.2L201.92 154.44C202 155.2 202.12 156.64 202.12 157.04V161.84C202.12 162.44 201.92 162.96 201.88 163.52V164.2C201.8 165 201.76 165.08 201.76 165.08C201.76 165.32 201.36 165.76 201.36 165.76C201.08 165.76 200.84 165.6 200.04 165.52ZM206.085 157.92C206.085 157.68 206.205 156.76 206.205 156.76C206.205 156.84 206.285 156.4 206.325 156.2C206.365 156 206.405 155.84 206.405 155.8C206.405 155.4 206.485 154.96 206.605 154.36C206.605 153.6 206.605 153.24 206.365 153L206.405 152.32C206.685 151.8 206.845 151.2 207.045 150.6C207.285 149.8 207.925 149.32 208.045 149C208.285 148.56 208.885 147.72 208.965 147.72L209.605 147.08L209.805 146.96L209.925 146.88L210.085 146.8C210.205 146.72 210.805 146.36 211.085 146.24C211.405 146.12 211.805 145.84 212.125 145.72C212.445 145.6 213.325 145.44 213.445 145.44H214.805C215.205 145.44 215.765 145.52 216.165 145.6C216.725 145.6 217.925 146.16 218.365 146.6C218.525 146.84 218.885 147.12 219.165 147.36L220.045 148.24C220.765 149.08 220.845 149.24 220.925 149.32C221.325 150.04 221.645 150.84 221.845 151.48C222.005 151.92 222.045 152.28 222.165 152.72C222.205 152.88 222.205 152.92 222.205 153.8L222.125 154.16C222.085 154.28 222.085 154.44 222.085 154.52C222.085 154.6 222.005 154.76 221.885 154.88C222.005 154.6 221.605 155.32 221.365 155.68C221.365 155.68 221.285 155.72 221.245 155.72C221.165 155.72 220.965 155.64 220.965 155.64C220.525 155.64 220.245 155.92 219.685 155.96C219.685 155.96 219.245 156.04 218.165 156.2H217.605L217.365 156.32C217.325 156.36 217.085 156.4 217.085 156.4C216.725 156.48 215.525 156.64 215.285 156.64H213.925C213.805 156.64 212.125 156.32 211.525 156.2L211.205 156.08C210.405 155.96 210.245 155.84 210.005 155.84H209.525C209.525 155.88 209.525 155.92 209.485 156C209.365 156.2 209.285 156.64 209.285 156.72V158.76C209.285 158.88 209.365 158.96 209.405 159.04L209.445 159.08C209.445 159.16 209.605 159.44 209.685 159.48C209.725 159.48 209.965 159.68 210.365 159.8C210.445 159.84 210.485 159.84 211.245 160C211.405 160.04 211.645 160.08 211.725 160.08H213.685C213.805 160.08 214.405 160 214.645 159.92C215.365 159.8 218.725 159.12 219.485 158.88C219.885 158.72 220.365 158.72 220.805 158.72H221.485C221.485 158.72 221.725 158.76 221.845 158.84C221.845 158.96 222.005 159.12 222.005 159.24V159.92L222.165 160.32C222.125 160.6 222.005 160.88 222.005 161.28V161.92C222.005 162.28 221.605 162.4 221.365 162.56C221.245 162.56 220.925 162.76 220.925 162.76L220.765 163.16C220.205 163.52 220.085 163.56 219.965 163.6C219.805 163.64 219.565 163.68 219.525 163.68C219.165 163.68 218.485 164.08 218.125 164.2C217.805 164.32 217.405 164.4 217.085 164.52C216.285 164.8 215.485 164.92 215.005 165C214.805 165.04 214.565 165.08 214.485 165.08H213.245C213.125 165.08 212.765 165.04 212.445 165C212.325 164.96 212.125 164.96 212.085 164.96C212.005 164.96 210.925 164.72 210.605 164.64C210.565 164.64 210.525 164.64 210.485 164.6C210.405 164.6 210.365 164.52 210.365 164.52C210.285 164.52 209.605 164.32 209.565 164.28C209.445 164.28 209.165 163.96 209.165 163.96C209.125 163.92 208.565 163.72 208.365 163.6C207.645 163.16 207.405 162.76 207.325 162.64C207.005 162.16 206.725 161.8 206.565 161.16C206.485 160.96 206.405 160.72 206.285 160.04C206.245 159.96 206.165 159.56 206.165 159.32C206.125 158.96 206.085 158.4 206.085 158.2V157.92ZM217.085 152.28C217.405 152.16 217.885 152.36 218.205 152.04C218.325 152 218.405 151.6 218.405 151.48C218.165 151.04 218.045 150.84 218.045 150.84L216.525 149.48C216.325 149.32 215.805 149.2 215.805 149.2C215.525 149.2 215.285 149.12 214.965 149.08C214.485 149.08 213.965 149.08 213.445 149.32C213.205 149.36 212.485 149.92 212.365 150.16L212.405 150.12L212.245 150.4C212.205 150.48 212.005 150.68 211.965 150.72C211.925 150.76 211.765 150.96 211.765 151.04V151.76C211.765 152.04 212.005 152.04 212.085 152.04C212.125 152.04 212.285 152.04 212.445 152.08C212.725 152.12 212.965 152.16 213.125 152.16L217.085 152.28ZM226.83 163.68C226.75 163.64 226.71 163.56 226.71 163.52C226.67 163.4 226.47 162.8 226.47 162.68C226.47 162.6 226.47 162.48 226.43 162.4L226.35 162.16V162.2C226.31 162.08 226.27 161.92 226.27 161.84C226.23 161.84 226.19 161.76 226.15 161.72V160.96C226.15 160.88 226.19 160.48 226.23 160.04C226.27 159.72 226.27 159.32 226.27 159.28V159.04C226.27 158.92 226.27 158.2 226.23 157.48C226.19 156.72 226.15 155.88 226.15 155.72V150.32C226.15 150.2 226.11 150 226.11 149.76C226.07 149.36 226.07 148.96 226.07 148.76C226.07 148.8 225.99 148.44 225.95 148.28C225.91 148.16 225.91 148.08 225.91 148.08V147.72C225.91 147.64 225.91 147.4 225.87 147.24C225.87 147.16 225.83 147.04 225.83 147.04C225.79 146.96 225.55 146.16 225.51 145.88L225.39 145.64C225.35 145.6 225.27 145.44 225.27 145.4V145.04C225.27 145.04 225.39 145 225.43 145C225.43 145 225.47 144.96 225.51 144.96C225.67 144.92 225.87 144.92 225.99 144.92H226.31C226.31 144.92 226.43 144.92 226.71 144.84C226.75 144.84 226.79 144.8 226.79 144.8H227.75L228.03 145.04C228.07 145.08 228.51 145.4 228.55 145.48C228.59 145.48 228.67 145.52 228.75 145.56C228.75 145.56 228.91 145.64 228.99 145.72C229.15 145.96 229.59 146.48 229.59 146.48C229.59 146.48 229.83 147.2 229.99 147.44V147.36C229.99 147.32 230.07 147.68 230.11 147.92C230.15 148.04 230.19 148.16 230.19 148.2C230.23 148.64 230.67 149.88 230.83 150.08L231.11 149.84L231.23 149.68C231.27 149.48 231.51 149.12 231.55 149.04C231.55 149.04 231.71 148.88 231.87 148.68C231.99 148.48 232.27 148.12 232.27 148.2L233.83 146.64C233.87 146.6 233.95 146.6 233.95 146.56C233.99 146.56 234.07 146.56 234.19 146.52C234.31 146.48 234.51 146.4 234.51 146.4C234.51 146.32 234.67 146.2 234.79 146.12V146.16C234.91 146.04 235.11 145.96 235.19 145.88C235.19 145.88 235.27 145.84 235.35 145.76L235.47 145.64C235.47 145.64 235.91 145.48 236.03 145.4L236.35 145.2H236.31C236.51 145.16 237.55 145 237.75 145H238.95C239.03 145 239.47 145.04 239.55 145.12C239.55 145.12 239.59 145.16 239.71 145.16C239.75 145.2 239.87 145.2 239.91 145.2C240.07 145.28 240.39 145.44 240.39 145.48L240.67 145.76C240.71 145.76 240.91 145.92 240.95 145.96V145.92C240.95 145.92 241.03 146.04 241.03 146.12C241.03 146.12 241.03 146.28 241.11 146.36L241.07 146.32C241.11 146.4 241.15 146.44 241.15 146.48L240.99 146.72L240.79 146.88V148.24H240.83L240.59 148.36C240.51 148.4 240.35 148.44 240.35 148.44C240.35 148.48 240.15 148.8 240.11 148.8C239.79 148.8 239.63 148.8 239.43 148.76C239.23 148.72 238.95 148.68 238.67 148.68H238.51C238.43 148.68 238.15 148.76 237.99 148.8C238.03 148.8 237.71 148.92 237.47 148.96C237.43 149 237.39 149 237.31 149C237.31 149 237.07 149.2 236.99 149.28C236.91 149.36 236.63 149.52 236.55 149.52L236.31 149.64L236.15 149.84C235.99 150 235.91 150.12 235.87 150.2L235.79 150.32L234.95 151.16C234.91 151.2 234.39 151.92 234.27 152.2C234.27 152.2 234.19 152.4 234.11 152.52L234.03 152.72C234.03 152.68 233.99 152.72 233.95 152.76C233.83 152.92 233.79 152.96 233.79 153.08C233.79 153.12 233.67 153.44 233.63 153.48L233.39 153.76L233.15 154.32C233.07 154.4 232.95 154.64 232.91 154.76H232.95C232.87 154.92 232.79 155 232.79 155.04L231.95 156.92V156.88C231.91 156.96 231.87 157.04 231.87 157.12C231.83 157.16 231.83 157.28 231.83 157.36L231.71 158L231.59 158.28C231.59 158.32 231.55 158.52 231.51 158.76C231.47 158.96 231.47 159.2 231.47 159.28V160.48C231.47 160.52 231.43 160.64 231.39 160.76V160.72C231.35 160.8 231.35 160.96 231.35 160.96V161.52C231.35 161.8 231.19 163.36 231.15 163.64C231.15 163.76 231.11 163.92 231.07 164.04V164C231.03 164.04 231.03 164.16 231.03 164.2C230.99 164.36 230.87 164.72 230.75 164.76H230.83C230.83 164.76 230.43 164.88 230.35 164.88H229.87C229.83 164.88 229.79 164.88 229.71 164.84C229.63 164.8 229.55 164.76 229.43 164.76C229.43 164.76 229.35 164.72 229.31 164.68C228.99 164.52 229.03 164.6 229.03 164.6L228.99 164.52C228.95 164.52 228.79 164.64 228.71 164.68C228.67 164.72 228.63 164.76 228.59 164.76H228.51L228.19 164.64C227.91 164.52 227.63 164.4 227.55 164.32C227.55 164.32 227.55 164.28 227.47 164.24L227.11 164.08L226.91 163.84C226.87 163.8 226.83 163.76 226.83 163.68Z" fill="white"/>
</g>
<defs>
<clipPath id="clip0_1028_29">
<rect width="201.667" height="50" fill="white" transform="translate(49 125)"/>
</clipPath>
</defs>
</svg>
